<svg width="16" height="16" viewBox="0 0 16 16" fill="none" xmlns="http://www.w3.org/2000/svg">
<path d="M0.999816 16C0.59542 15.9999 0.230882 15.7563 0.0761377 15.3826C-0.0786062 15.009 0.00690776 14.579 0.292816 14.293L5.29282 9.29298C5.68519 8.91401 6.3089 8.91943 6.69463 9.30516C7.08037 9.6909 7.08579 10.3146 6.70682 10.707L1.70682 15.707C1.51932 15.8945 1.26501 15.9999 0.999816 16Z" fill="#C5C7CD"/>
<path d="M0.965846 10.792L2.48785 9.269L2.43285 9.141C2.42685 9.125 1.85685 7.557 2.70785 6.706L6.73785 2.676C7.57985 1.834 9.13785 2.389 9.13785 2.388L9.30085 2.458L10.8228 0.935004L9.88985 0.535004C9.77685 0.491004 7.09985 -0.510996 5.32285 1.263L1.29285 5.293C-0.480154 7.064 0.522846 9.746 0.580846 9.894L0.965846 10.792Z" fill="#C5C7CD"/>
<path d="M5.20801 15.034L6.73101 13.512L6.85901 13.567C6.87501 13.573 8.44301 14.143 9.29401 13.292L13.324 9.26203C14.166 8.42003 13.611 6.86203 13.612 6.86203L13.542 6.69903L15.065 5.17603L15.465 6.10903C15.509 6.22203 16.511 8.90303 14.737 10.676L10.707 14.706C8.93601 16.479 6.25401 15.476 6.10701 15.418L5.20801 15.034Z" fill="#C5C7CD"/>
<path d="M9.99982 6.99998C9.59542 6.99989 9.23088 6.75625 9.07614 6.38263C8.92139 6.00902 9.00691 5.57897 9.29282 5.29298L14.2928 0.29298C14.6852 -0.0859921 15.3089 -0.0805723 15.6946 0.305162C16.0804 0.690895 16.0858 1.3146 15.7068 1.70698L10.7068 6.70698C10.5193 6.89453 10.265 6.99992 9.99982 6.99998Z" fill="#C5C7CD"/>
</svg>
