<svg width="23" height="23" viewBox="0 0 23 23" fill="none" xmlns="http://www.w3.org/2000/svg">
<g>
<path fill-rule="evenodd" clip-rule="evenodd" d="M3.5 5.5C4.60457 5.5 5.5 4.60457 5.5 3.5C5.5 2.39543 4.60457 1.5 3.5 1.5C2.39543 1.5 1.5 2.39543 1.5 3.5C1.5 4.60457 2.39543 5.5 3.5 5.5Z" stroke="#161F38" stroke-width="1.5" stroke-linecap="round" stroke-linejoin="round"/>
<path fill-rule="evenodd" clip-rule="evenodd" d="M3.5 13.5C4.60457 13.5 5.5 12.6046 5.5 11.5C5.5 10.3954 4.60457 9.5 3.5 9.5C2.39543 9.5 1.5 10.3954 1.5 11.5C1.5 12.6046 2.39543 13.5 3.5 13.5Z" stroke="#161F38" stroke-width="1.5" stroke-linecap="round" stroke-linejoin="round"/>
<path fill-rule="evenodd" clip-rule="evenodd" d="M3.5 21.5C4.60457 21.5 5.5 20.6046 5.5 19.5C5.5 18.3954 4.60457 17.5 3.5 17.5C2.39543 17.5 1.5 18.3954 1.5 19.5C1.5 20.6046 2.39543 21.5 3.5 21.5Z" stroke="#161F38" stroke-width="1.5" stroke-linecap="round" stroke-linejoin="round"/>
<path d="M9.5 3.5H21.5" stroke="#161F38" stroke-width="1.5" stroke-linecap="round" stroke-linejoin="round"/>
<path d="M9.5 11.5H21.5" stroke="#161F38" stroke-width="1.5" stroke-linecap="round" stroke-linejoin="round"/>
<path d="M9.5 19.5H21.5" stroke="#161F38" stroke-width="1.5" stroke-linecap="round" stroke-linejoin="round"/>
</g>
</svg>
