<svg width="16" height="16" viewBox="0 0 16 16" fill="none" xmlns="http://www.w3.org/2000/svg">
<path fill-rule="evenodd" clip-rule="evenodd" d="M13.5 10.5C9.082 10.5 5.5 6.918 5.5 2.5C5.5 1.943 5.557 1.4 5.666 0.875C2.668 1.857 0.5 4.674 0.5 8C0.5 12.142 3.858 15.5 8 15.5C11.326 15.5 14.143 13.332 15.125 10.334C14.6 10.443 14.057 10.5 13.5 10.5Z" stroke="white" stroke-linecap="round" stroke-linejoin="round"/>
<path d="M10 2C10.5523 2 11 1.55228 11 1C11 0.447715 10.5523 0 10 0C9.44772 0 9 0.447715 9 1C9 1.55228 9.44772 2 10 2Z" fill="white"/>
<path d="M11 6C11.5523 6 12 5.55228 12 5C12 4.44772 11.5523 4 11 4C10.4477 4 10 4.44772 10 5C10 5.55228 10.4477 6 11 6Z" fill="white"/>
<path d="M15 8C15.5523 8 16 7.55228 16 7C16 6.44772 15.5523 6 15 6C14.4477 6 14 6.44772 14 7C14 7.55228 14.4477 8 15 8Z" fill="white"/>
</svg>
