<svg width="14" height="16" viewBox="0 0 14 16" fill="none" xmlns="http://www.w3.org/2000/svg">
<path fill-rule="evenodd" clip-rule="evenodd" d="M14 3C14 4.654 12.654 6 11 6C10.296 6 9.657 5.746 9.145 5.339L5.925 7.351C5.971 7.56 6 7.776 6 8C6 8.223 5.971 8.44 5.925 8.649L9.144 10.661C9.657 10.254 10.296 10 11 10C12.654 10 14 11.346 14 13C14 14.654 12.654 16 11 16C9.346 16 8 14.654 8 13C8 12.776 8.029 12.56 8.075 12.351L4.856 10.339C4.344 10.746 3.704 11 3 11C1.346 11 0 9.654 0 8C0 6.346 1.346 5 3 5C3.704 5 4.344 5.254 4.856 5.661L8.075 3.65C8.029 3.44 8 3.224 8 3C8 1.346 9.346 0 11 0C12.654 0 14 1.346 14 3ZM12 3C12 2.448 11.551 2 11 2C10.449 2 10 2.448 10 3C10 3.552 10.449 4 11 4C11.551 4 12 3.552 12 3ZM3 9C2.449 9 2 8.552 2 8C2 7.448 2.449 7 3 7C3.551 7 4 7.448 4 8C4 8.552 3.551 9 3 9ZM12 13C12 12.448 11.551 12 11 12C10.449 12 10 12.448 10 13C10 13.552 10.449 14 11 14C11.551 14 12 13.552 12 13Z" fill="#8A8F9B"/>
</svg>
